<svg xmlns="http://www.w3.org/2000/svg" width="27" height="27" viewBox="0 0 27 27">
  <g id="icon_in" transform="translate(0)">
    <path id="Tracé_2" data-name="Tracé 2" d="M1061.626,59.914H1050a7.693,7.693,0,0,1-7.685-7.684V40.6A7.693,7.693,0,0,1,1050,32.914h11.63a7.693,7.693,0,0,1,7.685,7.684V52.23a7.693,7.693,0,0,1-7.685,7.684M1050,35.228a5.377,5.377,0,0,0-5.371,5.37V52.23A5.377,5.377,0,0,0,1050,57.6h11.63A5.377,5.377,0,0,0,1067,52.23V40.6a5.376,5.376,0,0,0-5.371-5.37Z" transform="translate(-1042.311 -32.914)" fill="#ffb138"/>
    <path id="Tracé_3" data-name="Tracé 3" d="M1083.456,80.972a6.913,6.913,0,1,1,6.913-6.914,6.921,6.921,0,0,1-6.913,6.914m0-11.512a4.6,4.6,0,1,0,4.6,4.6,4.6,4.6,0,0,0-4.6-4.6" transform="translate(-1069.955 -60.558)" fill="#ffb138"/>
    <path id="Tracé_4" data-name="Tracé 4" d="M1144.626,58.115a1.662,1.662,0,1,1-1.662-1.662,1.661,1.661,0,0,1,1.662,1.662" transform="translate(-1122.255 -51.924)" fill="#ffb138"/>
  </g>
</svg>
