<svg id="icon_tw" xmlns="http://www.w3.org/2000/svg" width="33.222" height="27" viewBox="0 0 33.222 27">
  <path id="tw" d="M830.83,55.474a13.6,13.6,0,0,1-3.915,1.073,6.839,6.839,0,0,0,3-3.77,13.638,13.638,0,0,1-4.328,1.654,6.822,6.822,0,0,0-11.615,6.217,19.349,19.349,0,0,1-14.049-7.122,6.824,6.824,0,0,0,2.109,9.1,6.78,6.78,0,0,1-3.087-.853c0,.029,0,.058,0,.086a6.821,6.821,0,0,0,5.468,6.683,6.838,6.838,0,0,1-3.078.118,6.823,6.823,0,0,0,6.368,4.733,13.767,13.767,0,0,1-10.091,2.823,19.281,19.281,0,0,0,10.447,3.063c12.537,0,19.394-10.386,19.394-19.394q0-.443-.02-.882a13.832,13.832,0,0,0,3.4-3.528" transform="translate(-797.608 -52.278)" fill="#ffb138"/>
</svg>
